<?xml version="1.0" encoding="iso-8859-1"?>
<!-- Generator: Adobe Illustrator 19.0.0, SVG Export Plug-In . SVG Version: 6.00 Build 0)  -->
<svg version="1.1" id="Capa_1" xmlns="http://www.w3.org/2000/svg" xmlns:xlink="http://www.w3.org/1999/xlink" x="0px" y="0px"
	 viewBox="0 0 512.003 512.003" style="enable-background:new 0 0 512.003 512.003;" xml:space="preserve">
<g>
	<g>
		<path d="M246.002,388.322c-5.523,0-10,4.478-10,10v0.192c0,5.522,4.477,10,10,10c5.523,0,10-4.478,10-10v-0.192
			C256.002,392.799,251.524,388.322,246.002,388.322z"/>
	</g>
</g>
<g>
	<g>
		<path d="M246.002,330.566c-5.523,0-10,4.478-10,10v0.192c0,5.522,4.477,10,10,10c5.523,0,10-4.478,10-10v-0.192
			C256.002,335.043,251.524,330.566,246.002,330.566z"/>
	</g>
</g>
<g>
	<g>
		<path d="M246.002,272.81c-5.523,0-10,4.478-10,10v0.192c0,5.522,4.477,10,10,10c5.523,0,10-4.478,10-10v-0.192
			C256.002,277.287,251.524,272.81,246.002,272.81z"/>
	</g>
</g>
<g>
	<g>
		<path d="M246.002,215.054c-5.523,0-10,4.478-10,10v0.192c0,5.522,4.477,10,10,10c5.523,0,10-4.478,10-10v-0.192
			C256.002,219.532,251.524,215.054,246.002,215.054z"/>
	</g>
</g>
<g>
	<g>
		<path d="M246.002,157.298c-5.523,0-10,4.478-10,10v0.192c0,5.522,4.477,10,10,10c5.523,0,10-4.478,10-10v-0.192
			C256.002,161.776,251.524,157.298,246.002,157.298z"/>
	</g>
</g>
<g>
	<g>
		<path d="M511.885,459.498l-50.77-328.423c-2.457-15.894-12.491-29.717-26.841-36.977c0,0-24.302-12.279-24.564-12.384
			l-55.074-21.988l-28.311-29.627c-1.959-2.051-4.592-3.082-7.235-3.081c0.002-0.006,0.003-0.011,0.005-0.017H192.907
			c0,0.004-0.001,0.007-0.002,0.01c-2.64,0.001-5.27,1.032-7.228,3.082l-28.31,29.628c0,0-55.867,22.351-55.88,22.358l-23.758,12.02
			c-14.35,7.26-24.384,21.083-26.841,36.977L0.118,459.498c-0.785,5.076,2.404,9.921,7.377,11.208l54,13.977
			c0.826,0.214,1.667,0.319,2.505,0.319c1.846,0,3.674-0.512,5.271-1.502c2.321-1.439,3.953-3.767,4.515-6.439L96,371.452v103.55
			c0,5.522,4.477,10,10,10h300c5.523,0,10-4.478,10-10v-103.55l22.214,105.609c0.562,2.673,2.194,5,4.515,6.439
			c1.597,0.991,3.425,1.502,5.271,1.502c0.838,0,1.68-0.105,2.505-0.319l54-13.977C509.481,469.419,512.669,464.574,511.885,459.498
			z M56.37,462.698l-35.104-9.086l3.723-24.083l36.475,8.953L56.37,462.698z M96.002,274.29L65.584,418.898l-37.527-9.212
			l42.597-275.557c1.474-9.535,7.494-17.829,16.104-22.186l9.244-4.677V274.29z M334.21,67.299l-51.581,42.106l-12.933-16.884
			l48.715-41.755L334.21,67.299z M292.07,47.002l-36.064,30.912l-36.065-30.912H292.07z M193.594,50.76l48.715,41.755L229.376,109.4
			l-51.581-42.106L193.594,50.76z M396.002,275.335c0,0.024,0,0.048,0,0.072v189.595h-68v-62.446c0-5.522-4.477-10-10-10
			s-10,4.478-10,10v62.446h-20v-310.06c0-5.522-4.477-10-10-10s-10,4.478-10,10v310.06h-152V275.407c0-0.024,0-0.048,0-0.072V97.777
			l45.331-18.103l63.384,51.742c1.794,1.464,4.031,2.253,6.323,2.253c0.386,0,0.773-0.022,1.161-0.067
			c2.688-0.314,5.133-1.704,6.779-3.852l17.019-22.219l17.024,22.225c1.646,2.147,4.091,3.537,6.779,3.852
			c0.387,0.045,0.774,0.067,1.161,0.067c2.292,0,4.529-0.789,6.323-2.253l63.385-51.743l45.331,18.098V275.335z M446.419,418.899
			L416,274.292V107.268h0.001l9.243,4.676c8.61,4.356,14.63,12.65,16.104,22.186l42.597,275.557L446.419,418.899z M455.633,462.698
			l-5.094-24.216l36.475-8.953l3.723,24.083L455.633,462.698z"/>
	</g>
</g>
<g>
	<g>
		<path d="M325.072,360.913c-1.86-1.861-4.44-2.931-7.07-2.931s-5.21,1.07-7.07,2.931c-1.86,1.859-2.93,4.439-2.93,7.069
			s1.07,5.21,2.93,7.07s4.44,2.93,7.07,2.93s5.21-1.069,7.07-2.93c1.86-1.861,2.93-4.44,2.93-7.07S326.932,362.772,325.072,360.913z
			"/>
	</g>
</g>
<g>
	<g>
		<path d="M161.072,251.043c-1.86-1.861-4.44-2.931-7.07-2.931c-2.63,0-5.21,1.07-7.07,2.931c-1.86,1.859-2.93,4.439-2.93,7.069
			c0,2.631,1.07,5.21,2.93,7.07s4.44,2.93,7.07,2.93s5.21-1.069,7.07-2.93c1.86-1.861,2.93-4.439,2.93-7.07
			C164.002,255.482,162.932,252.902,161.072,251.043z"/>
	</g>
</g>
<g>
	<g>
		<path d="M154.002,142.094c-5.523,0-10,4.478-10,10v71.445c0,5.522,4.477,10,10,10c5.523,0,10-4.478,10-10v-71.445
			C164.002,146.572,159.524,142.094,154.002,142.094z"/>
	</g>
</g>
<g>
</g>
<g>
</g>
<g>
</g>
<g>
</g>
<g>
</g>
<g>
</g>
<g>
</g>
<g>
</g>
<g>
</g>
<g>
</g>
<g>
</g>
<g>
</g>
<g>
</g>
<g>
</g>
<g>
</g>
</svg>
