<?xml version="1.0" encoding="iso-8859-1"?>
<!-- Generator: Adobe Illustrator 19.0.0, SVG Export Plug-In . SVG Version: 6.00 Build 0)  -->
<svg version="1.1" id="Capa_1" xmlns="http://www.w3.org/2000/svg" xmlns:xlink="http://www.w3.org/1999/xlink" x="0px" y="0px"
	 viewBox="0 0 512 512" style="enable-background:new 0 0 512 512;" xml:space="preserve">
<g>
	<g>
		<path d="M320,96H160c-35.296,0-64,28.704-64,64v192c0,35.296,28.704,64,64,64h160c35.296,0,64-28.704,64-64V160
			C384,124.704,355.296,96,320,96z M352,352c0,17.664-14.336,32-32,32H160c-17.632,0-32-14.336-32-32V160c0-17.632,14.368-32,32-32
			h160c17.664,0,32,14.368,32,32V352z"/>
	</g>
</g>
<g>
	<g>
		<path d="M400,160c-8.832,0-16,7.168-16,16v32c0,8.832,7.168,16,16,16c8.832,0,16-7.168,16-16v-32C416,167.168,408.832,160,400,160
			z"/>
	</g>
</g>
<g>
	<g>
		<path d="M358.592,111.84C343.808,82.56,336,49.408,336,16c0-8.832-7.168-16-16-16H160c-8.832,0-16,7.168-16,16
			c0,33.408-7.808,66.56-22.592,95.84c-4,7.872-0.8,17.504,7.072,21.504c7.872,4.032,17.504,0.8,21.504-7.072
			C164.64,97.216,173.344,64.928,175.488,32h129.056c2.112,32.928,10.816,65.216,25.504,94.272
			c2.816,5.536,8.416,8.768,14.272,8.768c2.432,0,4.896-0.544,7.2-1.696C359.392,129.344,362.56,119.744,358.592,111.84z"/>
	</g>
</g>
<g>
	<g>
		<path d="M351.552,378.688c-7.872-3.968-17.536-0.832-21.504,7.072c-14.656,28.992-23.392,61.312-25.504,94.24H175.488
			c-2.144-32.928-10.848-65.248-25.504-94.24c-4-7.872-13.664-11.04-21.504-7.072c-7.904,4-11.072,13.632-7.072,21.504
			C136.192,429.44,144,462.56,144,496c0,8.832,7.168,16,16,16h160c8.832,0,16-7.168,16-16c0-33.44,7.808-66.56,22.624-95.808
			C362.624,392.32,359.424,382.688,351.552,378.688z"/>
	</g>
</g>
<g>
	<g>
		<path d="M299.328,292.704L256,249.376V176c0-8.832-7.168-16-16-16c-8.832,0-16,7.168-16,16v80c0,4.256,1.696,8.32,4.672,11.328
			l48,48C279.808,318.432,283.904,320,288,320s8.192-1.568,11.328-4.672C305.568,309.088,305.568,298.944,299.328,292.704z"/>
	</g>
</g>
<g>
</g>
<g>
</g>
<g>
</g>
<g>
</g>
<g>
</g>
<g>
</g>
<g>
</g>
<g>
</g>
<g>
</g>
<g>
</g>
<g>
</g>
<g>
</g>
<g>
</g>
<g>
</g>
<g>
</g>
</svg>
